<svg width="29" height="29" viewBox="0 0 29 29" fill="none" xmlns="http://www.w3.org/2000/svg">
<path d="M7.38503 5.896C7.26758 5.89591 7.1539 5.85447 7.06394 5.77896C6.97398 5.70344 6.91347 5.59866 6.89303 5.483L6.73403 4.587C6.71083 4.45638 6.74046 4.32189 6.81641 4.21312C6.89236 4.10435 7.00841 4.0302 7.13903 4.007C7.26965 3.98379 7.40414 4.01342 7.51291 4.08938C7.62168 4.16533 7.69583 4.28138 7.71903 4.412L7.87803 5.308C7.89091 5.38004 7.88782 5.45402 7.86898 5.52474C7.85014 5.59545 7.816 5.66116 7.76899 5.71724C7.72197 5.77332 7.66321 5.81839 7.59687 5.84928C7.53053 5.88017 7.45821 5.89612 7.38503 5.896ZM11.484 28.995C11.3666 28.9949 11.2529 28.9535 11.1629 28.878C11.073 28.8024 11.0125 28.6977 10.992 28.582L7.95703 11.479C7.93383 11.3484 7.96346 11.2139 8.03941 11.1051C8.11536 10.9963 8.23141 10.9222 8.36203 10.899C8.49265 10.8758 8.62714 10.9054 8.73591 10.9814C8.84468 11.0573 8.91883 11.1734 8.94203 11.304L11.977 28.407C11.9899 28.479 11.9868 28.553 11.968 28.6237C11.9491 28.6945 11.915 28.7602 11.868 28.8162C11.821 28.8723 11.7622 28.9174 11.6959 28.9483C11.6295 28.9792 11.5572 28.9951 11.484 28.995Z" fill="#FFB13B"/>
<path d="M27.5 29H0.5C0.367392 29 0.240215 28.9473 0.146447 28.8536C0.0526784 28.7598 0 28.6326 0 28.5C0 28.3674 0.0526784 28.2402 0.146447 28.1464C0.240215 28.0527 0.367392 28 0.5 28H27.5C27.6326 28 27.7598 28.0527 27.8536 28.1464C27.9473 28.2402 28 28.3674 28 28.5C28 28.6326 27.9473 28.7598 27.8536 28.8536C27.7598 28.9473 27.6326 29 27.5 29ZM23.5 24H5.5C5.41764 24 5.33655 23.9797 5.26397 23.9408C5.19138 23.9019 5.12955 23.8456 5.084 23.777L1.084 17.777C1.04531 17.7224 1.01796 17.6606 1.00357 17.5953C0.989186 17.53 0.988056 17.4624 1.00025 17.3967C1.01244 17.3309 1.03771 17.2682 1.07455 17.2124C1.1114 17.1566 1.15907 17.1087 1.21475 17.0716C1.27043 17.0345 1.33299 17.009 1.39871 16.9965C1.46444 16.9841 1.53199 16.9849 1.59738 16.9991C1.66277 17.0132 1.72466 17.0403 1.77939 17.0787C1.83412 17.1172 1.88057 17.1663 1.916 17.223L5.768 23H23.5C23.6326 23 23.7598 23.0527 23.8536 23.1464C23.9473 23.2402 24 23.3674 24 23.5C24 23.6326 23.9473 23.7598 23.8536 23.8536C23.7598 23.9473 23.6326 24 23.5 24Z" fill="#FFB13B"/>
<path d="M3.4999 29C3.41817 28.9999 3.33771 28.9798 3.26553 28.9415C3.19335 28.9032 3.13164 28.8478 3.08579 28.7801C3.03993 28.7125 3.01132 28.6346 3.00245 28.5534C2.99358 28.4721 3.00472 28.3899 3.0349 28.314L5.0349 23.314C5.05926 23.253 5.0954 23.1974 5.14124 23.1504C5.18709 23.1033 5.24176 23.0658 5.30212 23.0399C5.36247 23.014 5.42734 23.0002 5.49302 22.9994C5.5587 22.9985 5.6239 23.0106 5.6849 23.035C5.7459 23.0594 5.8015 23.0955 5.84854 23.1413C5.89557 23.1872 5.93311 23.2419 5.95902 23.3022C5.98493 23.3626 5.99869 23.4274 5.99953 23.4931C6.00037 23.5588 5.98826 23.624 5.9639 23.685L3.9639 28.685C3.92691 28.7779 3.86293 28.8575 3.78022 28.9137C3.69751 28.9698 3.59987 28.9999 3.4999 29ZM25.4999 29C25.4 29 25.3025 28.9701 25.2198 28.9141C25.1371 28.8581 25.073 28.7787 25.0359 28.686L23.0359 23.686C23.0115 23.625 22.9994 23.5598 23.0003 23.4941C23.0011 23.4284 23.0149 23.3636 23.0408 23.3032C23.0667 23.2429 23.1042 23.1882 23.1513 23.1423C23.1983 23.0965 23.2539 23.0604 23.3149 23.036C23.3759 23.0116 23.4411 22.9995 23.5068 23.0004C23.5725 23.0012 23.6373 23.015 23.6977 23.0409C23.758 23.0668 23.8127 23.1043 23.8586 23.1514C23.9044 23.1984 23.9405 23.254 23.9649 23.315L25.9649 28.315C25.9951 28.3909 26.0063 28.473 25.9974 28.5542C25.9886 28.6354 25.9599 28.7132 25.9141 28.7808C25.8682 28.8484 25.8064 28.9037 25.7342 28.9419C25.662 28.9801 25.5816 29.0001 25.4999 29ZM0.571899 13.29C0.454443 13.2899 0.340766 13.2485 0.250804 13.173C0.160841 13.0974 0.100337 12.9927 0.0798993 12.877C-0.229101 11.14 0.372899 9.359 1.7729 7.861C3.1359 6.403 5.1039 5.383 7.3139 4.991C11.9279 4.17 16.1919 6.377 16.8189 9.906C16.8307 9.97071 16.8296 10.0371 16.8155 10.1014C16.8015 10.1656 16.7749 10.2265 16.7373 10.2804C16.6996 10.3343 16.6517 10.3803 16.5962 10.4156C16.5407 10.4508 16.4787 10.4748 16.4139 10.486L0.659899 13.282C0.630838 13.2871 0.601403 13.2898 0.571899 13.29ZM9.2519 5.819C8.6769 5.819 8.0859 5.87 7.4879 5.976C5.4899 6.331 3.7199 7.243 2.5029 8.544C1.4609 9.659 0.939899 10.942 1.0069 12.205L15.7159 9.595C15.0159 7.318 12.3729 5.819 9.2519 5.819Z" fill="#FFB13B"/>
<path d="M3.52602 12.765C3.40856 12.7649 3.29488 12.7235 3.20492 12.648C3.11496 12.5724 3.05445 12.4677 3.03402 12.352C2.73302 10.659 3.00302 8.966 3.79302 7.583C4.60002 6.172 5.85002 5.251 7.31302 4.992C10.302 4.464 13.238 6.903 13.864 10.431C13.8758 10.4957 13.8747 10.5621 13.8607 10.6264C13.8467 10.6906 13.8201 10.7515 13.7824 10.8054C13.7447 10.8593 13.6968 10.9053 13.6413 10.9406C13.5858 10.9758 13.5238 10.9998 13.459 11.011L3.61302 12.758C3.58427 12.7628 3.55516 12.7652 3.52602 12.765ZM8.13802 5.919C7.92302 5.919 7.70602 5.938 7.48902 5.976C6.32202 6.183 5.31802 6.93 4.66102 8.08C4.06302 9.126 3.81602 10.389 3.94902 11.682L12.775 10.116C12.146 7.652 10.212 5.919 8.13802 5.919Z" fill="#FFB13B"/>
<path d="M6.47894 12.241C6.36148 12.2409 6.2478 12.1995 6.15784 12.124C6.06788 12.0484 6.00737 11.9437 5.98694 11.828C5.69694 10.199 5.63794 8.622 5.81994 7.388C6.08694 5.578 6.77894 5.086 7.31294 4.991C8.91394 4.699 10.3459 7.774 10.9099 10.954C10.9217 11.0187 10.9206 11.0851 10.9066 11.1494C10.8926 11.2136 10.866 11.2745 10.8283 11.3284C10.7907 11.3823 10.7427 11.4283 10.6872 11.4636C10.6317 11.4988 10.5697 11.5228 10.5049 11.534L6.56694 12.233C6.53795 12.2386 6.50846 12.2413 6.47894 12.241ZM7.52594 5.973C7.51321 5.97296 7.5005 5.97397 7.48794 5.976C7.32894 6.004 6.98194 6.367 6.80994 7.534C6.66194 8.542 6.69094 9.814 6.89194 11.16L9.83194 10.639C9.19694 7.544 8.02694 5.973 7.52594 5.973ZM22.9999 8C21.6219 8 20.4999 6.878 20.4999 5.5C20.4999 4.122 21.6219 3 22.9999 3C24.3779 3 25.4999 4.122 25.4999 5.5C25.4999 6.878 24.3779 8 22.9999 8ZM22.9999 4C22.1729 4 21.4999 4.673 21.4999 5.5C21.4999 6.327 22.1729 7 22.9999 7C23.8269 7 24.4999 6.327 24.4999 5.5C24.4999 4.673 23.8269 4 22.9999 4ZM22.9999 2C22.8673 2 22.7402 1.94732 22.6464 1.85355C22.5526 1.75979 22.4999 1.63261 22.4999 1.5V0.5C22.4999 0.367392 22.5526 0.240215 22.6464 0.146447C22.7402 0.0526784 22.8673 0 22.9999 0C23.1325 0 23.2597 0.0526784 23.3535 0.146447C23.4473 0.240215 23.4999 0.367392 23.4999 0.5V1.5C23.4999 1.63261 23.4473 1.75979 23.3535 1.85355C23.2597 1.94732 23.1325 2 22.9999 2ZM22.9999 11C22.8673 11 22.7402 10.9473 22.6464 10.8536C22.5526 10.7598 22.4999 10.6326 22.4999 10.5V9.5C22.4999 9.36739 22.5526 9.24021 22.6464 9.14645C22.7402 9.05268 22.8673 9 22.9999 9C23.1325 9 23.2597 9.05268 23.3535 9.14645C23.4473 9.24021 23.4999 9.36739 23.4999 9.5V10.5C23.4999 10.6326 23.4473 10.7598 23.3535 10.8536C23.2597 10.9473 23.1325 11 22.9999 11ZM27.9999 6H26.9999C26.8673 6 26.7402 5.94732 26.6464 5.85355C26.5526 5.75979 26.4999 5.63261 26.4999 5.5C26.4999 5.36739 26.5526 5.24021 26.6464 5.14645C26.7402 5.05268 26.8673 5 26.9999 5H27.9999C28.1325 5 28.2597 5.05268 28.3535 5.14645C28.4473 5.24021 28.4999 5.36739 28.4999 5.5C28.4999 5.63261 28.4473 5.75979 28.3535 5.85355C28.2597 5.94732 28.1325 6 27.9999 6ZM18.9999 6H17.9999C17.8673 6 17.7402 5.94732 17.6464 5.85355C17.5526 5.75979 17.4999 5.63261 17.4999 5.5C17.4999 5.36739 17.5526 5.24021 17.6464 5.14645C17.7402 5.05268 17.8673 5 17.9999 5H18.9999C19.1325 5 19.2597 5.05268 19.3535 5.14645C19.4473 5.24021 19.4999 5.36739 19.4999 5.5C19.4999 5.63261 19.4473 5.75979 19.3535 5.85355C19.2597 5.94732 19.1325 6 18.9999 6ZM25.8289 3.171C25.7301 3.17098 25.6335 3.14168 25.5514 3.0868C25.4692 3.03192 25.4051 2.95392 25.3672 2.86265C25.3294 2.77139 25.3194 2.67094 25.3385 2.574C25.3577 2.47707 25.4052 2.38798 25.4749 2.318L26.1819 1.611C26.2762 1.51992 26.4025 1.46952 26.5336 1.47066C26.6647 1.4718 26.7901 1.52439 26.8828 1.61709C26.9756 1.70979 27.0281 1.8352 27.0293 1.9663C27.0304 2.0974 26.98 2.2237 26.8889 2.318L26.1819 3.025C26.1357 3.07146 26.0806 3.10829 26.0201 3.13335C25.9595 3.15841 25.8945 3.1712 25.8289 3.171ZM19.4639 9.536C19.3651 9.53598 19.2685 9.50668 19.1864 9.4518C19.1042 9.39692 19.0401 9.31892 19.0022 9.22765C18.9644 9.13639 18.9544 9.03594 18.9735 8.939C18.9927 8.84207 19.0402 8.75298 19.1099 8.683L19.8169 7.976C19.9112 7.88492 20.0375 7.83452 20.1686 7.83566C20.2997 7.8368 20.4251 7.88939 20.5178 7.98209C20.6105 8.07479 20.6631 8.2002 20.6643 8.3313C20.6654 8.4624 20.615 8.5887 20.5239 8.683L19.8169 9.39C19.7706 9.43637 19.7156 9.47314 19.655 9.49819C19.5944 9.52325 19.5295 9.5361 19.4639 9.536ZM26.5359 9.536C26.4033 9.53602 26.276 9.48353 26.1819 9.39L25.4749 8.683C25.3839 8.5887 25.3335 8.4624 25.3346 8.3313C25.3357 8.2002 25.3883 8.07479 25.481 7.98209C25.5737 7.88939 25.6991 7.8368 25.8302 7.83566C25.9613 7.83452 26.0876 7.88492 26.1819 7.976L26.8889 8.683C26.9586 8.75292 27.0061 8.84191 27.0253 8.93876C27.0445 9.0356 27.0346 9.13597 26.9968 9.22719C26.9591 9.31842 26.8952 9.39643 26.8131 9.45138C26.7311 9.50634 26.6347 9.53578 26.5359 9.536ZM20.1709 3.171C20.0383 3.17102 19.911 3.11853 19.8169 3.025L19.1099 2.318C19.0189 2.2237 18.9685 2.0974 18.9696 1.9663C18.9707 1.8352 19.0233 1.70979 19.116 1.61709C19.2087 1.52439 19.3341 1.4718 19.4652 1.47066C19.5963 1.46952 19.7226 1.51992 19.8169 1.611L20.5239 2.318C20.5936 2.38792 20.6411 2.47691 20.6603 2.57376C20.6795 2.6706 20.6696 2.77097 20.6318 2.86219C20.5941 2.95342 20.5302 3.03143 20.4481 3.08638C20.3661 3.14134 20.2697 3.17078 20.1709 3.171Z" fill="#FFB13B"/>
</svg>
