<svg width="22" height="22" viewBox="0 0 22 22" fill="none" xmlns="http://www.w3.org/2000/svg">
<path fill-rule="evenodd" clip-rule="evenodd" d="M11 0.50105C5.20086 0.50105 0.500008 5.20184 0.500008 11.0009C0.498076 12.5481 0.839105 14.0764 1.49856 15.476L0.522058 20.2397C0.487292 20.4098 0.495243 20.5859 0.545202 20.7522C0.59516 20.9184 0.685566 21.0697 0.808327 21.1925C0.931087 21.3152 1.08237 21.4056 1.24864 21.4556C1.4149 21.5055 1.59096 21.5135 1.76106 21.4787L6.52491 20.5022C7.88361 21.1427 9.40191 21.4997 11 21.4997C16.7992 21.4997 21.5 16.8 21.5 10.9999C21.5 5.20184 16.7992 0.5 11 0.5" fill="#DBDBDB"/>
</svg>
