<svg width="35" height="35" viewBox="0 0 35 35" fill="none" xmlns="http://www.w3.org/2000/svg">
<path d="M3.64575 32.8125V31.3542H4.37492C5.11575 31.3542 5.85659 31.2375 6.59742 31.0042C7.33922 30.7708 8.05672 30.4296 8.74992 29.9804C9.43825 30.3985 10.1674 30.729 10.9374 30.9721C11.7074 31.2151 12.4507 31.3396 13.1672 31.3454C13.8575 31.3512 14.5682 31.2419 15.2993 31.0173C16.0294 30.7937 16.763 30.4481 17.4999 29.9804C18.1883 30.4228 18.9043 30.7611 19.648 30.9954C20.3918 31.2297 21.1341 31.3464 21.8749 31.3454C22.5963 31.3454 23.3216 31.2346 24.0508 31.0129C24.7799 30.7913 25.513 30.4471 26.2499 29.9804C26.9869 30.4471 27.7209 30.7927 28.452 31.0173C29.1841 31.2419 29.9084 31.3542 30.6249 31.3542H31.3541V32.8125H30.6249C29.9094 32.8125 29.1821 32.7167 28.4433 32.5252C27.7044 32.3337 26.9733 32.0372 26.2499 31.6356C25.5266 32.0372 24.7969 32.3337 24.061 32.5252C23.325 32.7167 22.5963 32.8125 21.8749 32.8125C21.1594 32.8125 20.4321 32.7167 19.6933 32.5252C18.9544 32.3337 18.2233 32.0372 17.4999 31.6356C16.7951 32.0245 16.0678 32.3191 15.3183 32.5194C14.5687 32.7206 13.8332 32.8183 13.1118 32.8125C12.4011 32.8067 11.67 32.7036 10.9185 32.5033C10.1669 32.3031 9.44409 32.0133 8.74992 31.6342C8.02659 32.0367 7.29693 32.3337 6.56096 32.5252C5.82499 32.7167 5.09631 32.8125 4.37492 32.8125H3.64575ZM13.1541 27.8775C12.5221 27.8775 11.9096 27.7929 11.3166 27.6238C10.7255 27.4556 10.2063 27.2125 9.75908 26.8946L11.1255 25.8738C11.7526 25.4042 12.2417 25.0454 12.5926 24.7975L10.0508 19.8975C9.85047 19.5407 9.70513 19.1596 9.61471 18.7542C9.52429 18.3488 9.47908 17.9307 9.47908 17.5V11.6667C9.47908 11.0513 9.69006 10.5331 10.112 10.1121C10.533 9.69014 11.0512 9.47917 11.6666 9.47917H16.0416C17.0138 9.47917 17.9296 9.32507 18.7891 9.01688C19.6485 8.70868 20.4492 8.25174 21.191 7.64604L22.222 8.70479C21.3567 9.43396 20.3981 9.98813 19.3462 10.3673C18.2933 10.7474 17.1917 10.9375 16.0416 10.9375H13.2708V17.5H17.7478L20.3655 20.3744C22.0397 19.6812 23.5092 19.1503 24.7741 18.7819C26.038 18.4134 27.0889 18.2292 27.927 18.2292C28.5531 18.2292 29.0378 18.3327 29.381 18.5398C29.7242 18.7459 29.8958 19.0658 29.8958 19.4994C29.8958 20.3919 29.1554 21.5935 27.6747 23.1044C26.194 24.6162 24.2554 26.1246 21.8589 27.6296C21.7014 27.6782 21.5278 27.7176 21.3383 27.7477C21.1487 27.7778 20.9722 27.7924 20.8089 27.7915C20.2178 27.7915 19.6315 27.6408 19.0501 27.3394C18.4687 27.038 17.952 26.6097 17.4999 26.0546C16.936 26.6467 16.2803 27.0988 15.5326 27.4108C14.785 27.7229 13.9917 27.8785 13.1526 27.8775M13.9912 23.816C14.5667 23.4612 15.3785 22.9882 16.4266 22.3971C17.4746 21.806 18.3224 21.3539 18.9699 21.0408L17.0799 18.9583L12.088 19.5256L13.9912 23.816ZM11.6666 6.8425C10.9958 6.8425 10.4168 6.59945 9.92971 6.11333C9.44263 5.62528 9.19909 5.04583 9.19909 4.375C9.19909 3.70417 9.44214 3.12521 9.92825 2.63813C10.4144 2.15104 10.9938 1.9075 11.6666 1.9075C12.3394 1.9075 12.9183 2.15056 13.4035 2.63667C13.8886 3.12278 14.1321 3.70222 14.1341 4.375C14.136 5.04778 13.893 5.62674 13.4049 6.11188C12.9169 6.59896 12.3374 6.8425 11.6666 6.8425ZM23.9676 6.53479L23.0533 5.62042L26.7662 1.9075H28.5949L23.9676 6.53479Z" fill="#FFB13B"/>
</svg>
