<svg width="29" height="29" viewBox="0 0 29 29" fill="none" xmlns="http://www.w3.org/2000/svg">
<path d="M28.5 12.3393C28.4995 12.2567 28.4741 12.1762 28.4271 12.1083C28.3801 12.0404 28.3137 11.9883 28.2366 11.9587C28.1595 11.9292 28.0752 11.9236 27.9949 11.9427C27.9146 11.9618 27.8419 12.0047 27.7863 12.0659C27.6179 12.2513 26.7073 13.1727 25.2991 13.1301C25.2335 13.1301 25.1695 13.1241 25.1066 13.118V7.61375C26.0725 7.38204 26.9323 6.83217 27.5478 6.05261C28.1633 5.27305 28.4987 4.30911 28.5 3.31586C28.4995 3.23328 28.4741 3.15277 28.4271 3.08487C28.3801 3.01696 28.3137 2.96483 28.2366 2.93528C28.1595 2.90574 28.0752 2.90016 27.9949 2.91927C27.9146 2.93839 27.8419 2.98131 27.7863 3.04242C27.6179 3.22781 26.7073 4.14875 25.2991 4.10664C24.1879 4.07328 23.4294 3.46406 23.1116 3.15289V1.62164C23.1114 1.32463 22.9934 1.03983 22.7836 0.829612C22.5738 0.619389 22.2892 0.500868 21.9922 0.5L6.99195 0.5C6.69471 0.50029 6.40972 0.618497 6.19954 0.828681C5.98936 1.03886 5.87115 1.32385 5.87086 1.62109V3.15234C5.56406 3.45312 4.83617 4.04539 3.77742 4.105C2.33258 4.18703 1.38813 3.23 1.21367 3.04023C1.15794 2.9801 1.08546 2.93805 1.0056 2.91952C0.92573 2.90098 0.842142 2.9068 0.765618 2.93623C0.689094 2.96566 0.623147 3.01735 0.576288 3.08463C0.529429 3.15191 0.503809 3.23169 0.502734 3.31367C0.504047 4.30692 0.839427 5.27086 1.45492 6.05042C2.07042 6.82999 2.93025 7.37985 3.89609 7.61156V13.1197C3.85781 13.1235 3.81953 13.1262 3.78016 13.1284C2.33531 13.2099 1.39086 12.2534 1.21641 12.0637C1.16067 12.0035 1.0882 11.9615 1.00833 11.943C0.928465 11.9244 0.844876 11.9302 0.768352 11.9597C0.691828 11.9891 0.625881 12.0408 0.579023 12.1081C0.532164 12.1754 0.506544 12.2551 0.505469 12.3371C0.506782 13.3304 0.842161 14.2943 1.45766 15.0739C2.07315 15.8534 2.93298 16.4033 3.89883 16.635V27.6797H0.910156C0.801376 27.6797 0.697051 27.7229 0.620132 27.7998C0.543213 27.8767 0.5 27.9811 0.5 28.0898C0.5 28.1986 0.543213 28.3029 0.620132 28.3799C0.697051 28.4568 0.801376 28.5 0.910156 28.5H28.0898C28.1986 28.5 28.3029 28.4568 28.3799 28.3799C28.4568 28.3029 28.5 28.1986 28.5 28.0898C28.5 27.9811 28.4568 27.8767 28.3799 27.7998C28.3029 27.7229 28.1986 27.6797 28.0898 27.6797H25.1094V16.6372C26.0747 16.4049 26.9339 15.8549 27.5489 15.0753C28.1638 14.2958 28.4988 13.3322 28.5 12.3393ZM6.69117 1.62109C6.69117 1.54132 6.72286 1.46482 6.77927 1.40841C6.83568 1.352 6.91218 1.32031 6.99195 1.32031H21.9922C22.0719 1.32046 22.1483 1.35219 22.2047 1.40857C22.2611 1.46495 22.2928 1.54137 22.293 1.62109V2.90625H6.69117V1.62109ZM1.45375 4.28875C2.15749 4.74415 2.98673 4.96648 3.82391 4.92422C5.14844 4.8493 6.04094 4.14219 6.45711 3.72656H22.5287C22.9224 4.11484 23.8751 4.8832 25.2745 4.92531C26.0773 4.948 26.8683 4.72848 27.5446 4.29531C27.3302 5.049 26.8762 5.71235 26.2512 6.185C25.6262 6.65764 24.8643 6.91384 24.0807 6.91484H4.9193C4.13456 6.91388 3.37157 6.65693 2.74612 6.18298C2.12067 5.70903 1.66692 5.04398 1.45375 4.28875ZM24.2891 7.73023V12.9255C23.8508 12.7576 23.4516 12.5017 23.116 12.1736V7.73516H24.0834C24.1496 7.73516 24.218 7.73297 24.2891 7.73023ZM22.2957 7.73516V11.9297H6.69117V7.73516H22.2957ZM5.87359 7.73516V12.1752C5.54152 12.5009 5.14696 12.7559 4.71367 12.925V7.72969C4.78203 7.72969 4.85039 7.73461 4.9193 7.73461L5.87359 7.73516ZM6.14703 26.0888C5.96879 26.1494 5.81392 26.2641 5.70402 26.417C5.59412 26.5698 5.53467 26.7532 5.53398 26.9414V27.6797H4.71367V16.7537C4.78203 16.7564 4.85039 16.7586 4.9193 16.7586H5.53398V17.4969C5.53436 17.6846 5.59317 17.8675 5.70224 18.0203C5.81131 18.1731 5.96524 18.2881 6.14266 18.3495L6.14703 26.0888ZM9.35281 27.6797H6.3543V26.9414C6.3543 26.9197 6.36294 26.8988 6.37832 26.8834C6.39371 26.868 6.41457 26.8594 6.43633 26.8594H9.27078C9.29254 26.8594 9.3134 26.868 9.32879 26.8834C9.34417 26.8988 9.35281 26.9197 9.35281 26.9414V27.6797ZM6.96297 26.0391V18.3992H8.74414V26.0391H6.96297ZM9.35281 17.4969C9.35281 17.5186 9.34417 17.5395 9.32879 17.5549C9.3134 17.5703 9.29254 17.5789 9.27078 17.5789H6.43633C6.41457 17.5789 6.39371 17.5703 6.37832 17.5549C6.36294 17.5395 6.3543 17.5186 6.3543 17.4969V16.7586H9.35281V17.4969ZM16.9495 27.6797H12.0505V20.2766C12.0505 20.1679 12.0938 20.0635 12.1707 19.9866C12.2476 19.9097 12.3519 19.8665 12.4607 19.8665H16.5393C16.6481 19.8665 16.7524 19.9097 16.8293 19.9866C16.9062 20.0635 16.9495 20.1679 16.9495 20.2766V27.6797ZM19.4355 26.0888C19.2581 26.1501 19.1041 26.2651 18.995 26.4179C18.8859 26.5707 18.8272 26.7537 18.8269 26.9414V27.6797H17.7698V20.2766C17.7695 19.9504 17.6397 19.6376 17.409 19.4069C17.1784 19.1762 16.8655 19.0465 16.5393 19.0462H12.4607C12.1345 19.0465 11.8216 19.1762 11.591 19.4069C11.3603 19.6376 11.2305 19.9504 11.2302 20.2766V27.6797H10.1731V26.9414C10.1728 26.7537 10.1141 26.5707 10.005 26.4179C9.89589 26.2651 9.74192 26.1501 9.56445 26.0888V18.3495C9.74192 18.2882 9.89589 18.1732 10.005 18.0204C10.1141 17.8676 10.1728 17.6846 10.1731 17.4969V16.7586H18.8269V17.4969C18.8272 17.6846 18.8859 17.8676 18.995 18.0204C19.1041 18.1732 19.2581 18.2882 19.4355 18.3495V26.0888ZM22.6484 27.6797H19.6472V26.9414C19.6472 26.9197 19.6558 26.8988 19.6712 26.8834C19.6866 26.868 19.7075 26.8594 19.7292 26.8594H22.5637C22.5854 26.8594 22.6063 26.868 22.6217 26.8834C22.6371 26.8988 22.6457 26.9197 22.6457 26.9414L22.6484 27.6797ZM20.2586 26.0391V18.3992H22.0398V26.0391H20.2586ZM22.6484 17.4969C22.6484 17.5186 22.6398 17.5395 22.6244 17.5549C22.609 17.5703 22.5882 17.5789 22.5664 17.5789H19.7292C19.7075 17.5789 19.6866 17.5703 19.6712 17.5549C19.6558 17.5395 19.6472 17.5186 19.6472 17.4969V16.7586H22.6484V17.4969ZM24.2891 27.6797H23.4688V26.9414C23.4684 26.7537 23.4096 26.5707 23.3005 26.418C23.1914 26.2652 23.0375 26.1502 22.8601 26.0888V18.3495C23.0375 18.2881 23.1914 18.1731 23.3005 18.0203C23.4096 17.8675 23.4684 17.6846 23.4688 17.4969V16.7586H24.0834C24.1523 16.7586 24.2207 16.7586 24.2891 16.7537V27.6797ZM24.0834 15.9383H4.9193C4.1347 15.9374 3.37181 15.6806 2.74639 15.2069C2.12096 14.7331 1.66712 14.0683 1.45375 13.3133C2.15762 13.7683 2.98685 13.9902 3.82391 13.9477C5.14734 13.8727 6.04094 13.1656 6.45711 12.7495H22.5287C23.101 13.3127 23.8218 13.7015 24.6068 13.8705H24.6166C24.8329 13.9143 25.0524 13.9397 25.2729 13.9466C26.0756 13.9694 26.8666 13.7501 27.543 13.3171C27.329 14.0708 26.8753 14.7344 26.2506 15.2073C25.6259 15.6802 24.8642 15.9368 24.0807 15.9383H24.0834ZM9.12148 11.123C9.2426 11.2441 9.40686 11.3122 9.57812 11.3122C9.74939 11.3122 9.91365 11.2441 10.0348 11.123L10.8688 10.2891C10.9896 10.1678 11.0574 10.0036 11.0574 9.83242C11.0574 9.66124 10.9896 9.49704 10.8688 9.37578L10.0348 8.5418C9.91365 8.42071 9.74939 8.35268 9.57812 8.35268C9.40686 8.35268 9.2426 8.42071 9.12148 8.5418L8.2875 9.37578C8.16668 9.49704 8.09883 9.66124 8.09883 9.83242C8.09883 10.0036 8.16668 10.1678 8.2875 10.2891L9.12148 11.123ZM9.57812 9.24508L10.1649 9.83242L9.57812 10.4198L8.99133 9.83242L9.57812 9.24508ZM18.9652 11.123C19.0864 11.2441 19.2506 11.3122 19.4219 11.3122C19.5931 11.3122 19.7574 11.2441 19.8785 11.123L20.7125 10.2891C20.8333 10.1678 20.9012 10.0036 20.9012 9.83242C20.9012 9.66124 20.8333 9.49704 20.7125 9.37578L19.8785 8.5418C19.7574 8.42071 19.5931 8.35268 19.4219 8.35268C19.2506 8.35268 19.0864 8.42071 18.9652 8.5418L18.1313 9.37578C18.0104 9.49704 17.9426 9.66124 17.9426 9.83242C17.9426 10.0036 18.0104 10.1678 18.1313 10.2891L18.9652 11.123ZM19.4219 9.24508L20.0087 9.83242L19.4219 10.4198L18.8351 9.83242L19.4219 9.24508ZM14.0434 11.123C14.1645 11.2441 14.3287 11.3122 14.5 11.3122C14.6713 11.3122 14.8355 11.2441 14.9566 11.123L15.7906 10.2891C15.9114 10.1678 15.9793 10.0036 15.9793 9.83242C15.9793 9.66124 15.9114 9.49704 15.7906 9.37578L14.9566 8.5418C14.8355 8.42071 14.6713 8.35268 14.5 8.35268C14.3287 8.35268 14.1645 8.42071 14.0434 8.5418L13.2094 9.37578C13.0886 9.49704 13.0207 9.66124 13.0207 9.83242C13.0207 10.0036 13.0886 10.1678 13.2094 10.2891L14.0434 11.123ZM14.5 9.24508L15.0868 9.83242L14.5 10.4198L13.9132 9.83242L14.5 9.24508Z" fill="#FFB13B"/>
</svg>
